<svg width="20" height="20" viewBox="0 0 20 20" fill="none" xmlns="http://www.w3.org/2000/svg">
<g clip-path="url(#clip0)">
<path d="M1.03356 20C0.77011 20 0.50666 19.8998 0.306499 19.6982C-0.0953304 19.2963 -0.0953304 18.6449 0.306499 18.2431L18.2482 0.301372C18.65 -0.100457 19.3015 -0.100457 19.7033 0.301372C20.1051 0.703201 20.1051 1.35467 19.7033 1.75675L1.76187 19.6982C1.56021 19.8986 1.29676 20 1.03356 20Z" fill="#565656"/>
<path d="M18.9765 20C18.713 20 18.4499 19.8998 18.2494 19.6982L0.306499 1.75675C-0.0953304 1.35467 -0.0953304 0.703201 0.306499 0.301372C0.708328 -0.100457 1.35979 -0.100457 1.76187 0.301372L19.7033 18.2431C20.1051 18.6449 20.1051 19.2963 19.7033 19.6982C19.5016 19.8986 19.2384 20 18.9765 20Z" fill="#565656"/>
</g>
<defs>
<clipPath id="clip0">
<rect width="20" height="20" rx="5" fill="white"/>
</clipPath>
</defs>
</svg>
