<svg width="30" height="30" viewBox="0 0 30 30" fill="none" xmlns="http://www.w3.org/2000/svg">
<g clip-path="url(#clip0)">
<path d="M1.54997 30.0001C1.1548 30.0001 0.759624 29.8498 0.459382 29.5473C-0.143362 28.9445 -0.143362 27.9673 0.459382 27.3646L27.3719 0.452058C27.9747 -0.150686 28.9519 -0.150686 29.5546 0.452058C30.1573 1.0548 30.1573 2.032 29.5546 2.63512L2.64245 29.5473C2.33994 29.8479 1.94477 30.0001 1.54997 30.0001Z" fill="white"/>
<path d="M28.4644 30.0001C28.0692 30.0001 27.6744 29.8498 27.3738 29.5473L0.459382 2.63512C-0.143362 2.032 -0.143362 1.0548 0.459382 0.452058C1.06213 -0.150686 2.03933 -0.150686 2.64245 0.452058L29.5546 27.3646C30.1573 27.9673 30.1573 28.9445 29.5546 29.5473C29.2521 29.8479 28.8573 30.0001 28.4644 30.0001Z" fill="white"/>
</g>
<defs>
<clipPath id="clip0">
<rect width="30" height="30" rx="5" fill="white"/>
</clipPath>
</defs>
</svg>
