<svg width="30" height="30" viewBox="0 0 30 30" fill="none" xmlns="http://www.w3.org/2000/svg">
<path d="M29.25 12.99C29.2491 12.9893 29.2484 12.9884 29.2478 12.9877L17.0101 0.750505C16.4885 0.228654 15.795 -0.0585938 15.0573 -0.0585938C14.3196 -0.0585938 13.6261 0.228654 13.1042 0.750505L0.872988 12.9815C0.868868 12.9856 0.864519 12.99 0.860628 12.9941C-0.210541 14.0715 -0.20871 15.8194 0.865892 16.894C1.35684 17.3852 2.00504 17.6695 2.69832 17.6995C2.72671 17.7022 2.75509 17.7036 2.7837 17.7036H3.27122V26.7092C3.27122 28.4915 4.72141 29.9415 6.50372 29.9415H11.2915C11.7769 29.9415 12.1704 29.5478 12.1704 29.0626V22.002C12.1704 21.1888 12.8321 20.5273 13.6453 20.5273H16.4693C17.2825 20.5273 17.9439 21.1888 17.9439 22.002V29.0626C17.9439 29.5478 18.3374 29.9415 18.8229 29.9415H23.6106C25.3931 29.9415 26.8431 28.4915 26.8431 26.7092V17.7036H27.2954C28.0328 17.7036 28.7264 17.4163 29.2484 16.8943C30.3242 15.8181 30.3246 14.0669 29.25 12.99ZM28.0054 15.6514C27.8156 15.8412 27.5634 15.9458 27.2954 15.9458H25.9642C25.4787 15.9458 25.0853 16.3392 25.0853 16.8247V26.7092C25.0853 27.5222 24.4238 28.1837 23.6106 28.1837H19.7018V22.002C19.7018 20.2197 18.2518 18.7695 16.4693 18.7695H13.6453C11.8628 18.7695 10.4126 20.2197 10.4126 22.002V28.1837H6.50372C5.69073 28.1837 5.02903 27.5222 5.02903 26.7092V16.8247C5.02903 16.3392 4.63558 15.9458 4.15012 15.9458H2.84183C2.8281 15.9449 2.8146 15.9442 2.80063 15.9439C2.53879 15.9394 2.2932 15.8355 2.10918 15.6512C1.71779 15.2598 1.71779 14.6228 2.10918 14.2312C2.10941 14.2312 2.10941 14.231 2.10964 14.2308L2.11033 14.2301L14.3475 1.99334C14.537 1.80359 14.789 1.69922 15.0573 1.69922C15.3253 1.69922 15.5773 1.80359 15.767 1.99334L28.0015 14.2276C28.0033 14.2294 28.0054 14.2312 28.0072 14.233C28.3965 14.6251 28.3959 15.2607 28.0054 15.6514Z" fill="#A0B428"/>
</svg>
