<svg width="97" height="79" viewBox="0 0 97 79" fill="none" xmlns="http://www.w3.org/2000/svg">
<rect width="97" height="79" fill="white" fill-opacity="0.8"/>
<g clip-path="url(#clip0)">
<path d="M36.25 35.99C36.2491 35.9893 36.2484 35.9884 36.2478 35.9877L24.0101 23.7505C23.4885 23.2287 22.795 22.9414 22.0573 22.9414C21.3196 22.9414 20.6261 23.2287 20.1042 23.7505L7.87299 35.9815C7.86887 35.9856 7.86452 35.99 7.86063 35.9941C6.78946 37.0715 6.79129 38.8194 7.86589 39.894C8.35684 40.3852 9.00504 40.6695 9.69832 40.6995C9.72671 40.7022 9.75509 40.7036 9.7837 40.7036H10.2712V49.7092C10.2712 51.4915 11.7214 52.9415 13.5037 52.9415H18.2915C18.7769 52.9415 19.1704 52.5478 19.1704 52.0626V45.002C19.1704 44.1888 19.8321 43.5273 20.6453 43.5273H23.4693C24.2825 43.5273 24.9439 44.1888 24.9439 45.002V52.0626C24.9439 52.5478 25.3374 52.9415 25.8229 52.9415H30.6106C32.3931 52.9415 33.8431 51.4915 33.8431 49.7092V40.7036H34.2954C35.0328 40.7036 35.7264 40.4163 36.2484 39.8943C37.3242 38.8181 37.3246 37.0669 36.25 35.99ZM35.0054 38.6514C34.8156 38.8412 34.5634 38.9458 34.2954 38.9458H32.9642C32.4787 38.9458 32.0853 39.3392 32.0853 39.8247V49.7092C32.0853 50.5222 31.4238 51.1837 30.6106 51.1837H26.7018V45.002C26.7018 43.2197 25.2518 41.7695 23.4693 41.7695H20.6453C18.8628 41.7695 17.4126 43.2197 17.4126 45.002V51.1837H13.5037C12.6907 51.1837 12.029 50.5222 12.029 49.7092V39.8247C12.029 39.3392 11.6356 38.9458 11.1501 38.9458H9.84183C9.8281 38.9449 9.8146 38.9442 9.80063 38.9439C9.53879 38.9394 9.2932 38.8355 9.10918 38.6512C8.71779 38.2598 8.71779 37.6228 9.10918 37.2312C9.10941 37.2312 9.10941 37.231 9.10964 37.2308L9.11033 37.2301L21.3475 24.9933C21.537 24.8036 21.789 24.6992 22.0573 24.6992C22.3253 24.6992 22.5773 24.8036 22.767 24.9933L35.0015 37.2276C35.0033 37.2294 35.0054 37.2312 35.0072 37.233C35.3965 37.6251 35.3959 38.2607 35.0054 38.6514Z" fill="#A0B428"/>
</g>
<path d="M45.377 25.25H49.4307V27H43.2578V17.0059H45.377V25.25ZM57.1553 26.5967C56.4535 26.9567 55.5579 27.1367 54.4688 27.1367C53.2383 27.1367 52.2767 26.7972 51.584 26.1182C50.8913 25.4391 50.5449 24.4684 50.5449 23.2061C50.5449 21.9437 50.8639 20.9661 51.502 20.2734C52.14 19.5671 53.0127 19.2139 54.1201 19.2139C55.2275 19.2139 56.0798 19.5215 56.6768 20.1367C57.2829 20.7474 57.5859 21.5973 57.5859 22.6865V23.6982H52.6572C52.68 24.2952 52.8555 24.7601 53.1836 25.0928C53.5163 25.4209 53.9766 25.585 54.5645 25.585C55.4303 25.585 56.2939 25.3844 57.1553 24.9834V26.5967ZM55.6309 22.3105C55.6217 21.8001 55.4873 21.4036 55.2275 21.1211C54.9723 20.8385 54.6237 20.6973 54.1816 20.6973C53.7396 20.6973 53.391 20.8363 53.1357 21.1143C52.8851 21.3923 52.7415 21.791 52.7051 22.3105H55.6309ZM62.5967 19.2139C63.2985 19.2139 63.9251 19.3734 64.4766 19.6924C65.0326 20.0068 65.4609 20.4626 65.7617 21.0596C66.0671 21.652 66.2197 22.3311 66.2197 23.0967C66.2197 23.1195 66.2197 23.1423 66.2197 23.165C66.2197 24.4092 65.8916 25.3822 65.2354 26.084C64.5791 26.7858 63.6654 27.1367 62.4941 27.1367C62.4759 27.1367 62.4554 27.1367 62.4326 27.1367C61.7308 27.1367 61.1019 26.9772 60.5459 26.6582C59.9945 26.3346 59.5661 25.8743 59.2607 25.2773C58.96 24.6803 58.8096 23.999 58.8096 23.2334C58.8096 23.2106 58.8096 23.1878 58.8096 23.165C58.8096 21.9163 59.1354 20.9479 59.7871 20.2598C60.4388 19.5625 61.3548 19.2139 62.5352 19.2139C62.5534 19.2139 62.5739 19.2139 62.5967 19.2139ZM63.7109 21.4561C63.4603 21.0824 63.0592 20.8955 62.5078 20.8955C61.9564 20.8955 61.5553 21.0801 61.3047 21.4492C61.0586 21.8184 60.9355 22.3903 60.9355 23.165C60.9355 23.9352 61.0609 24.5117 61.3115 24.8945C61.5667 25.2728 61.9678 25.4619 62.5146 25.4619C63.0661 25.4619 63.4648 25.2728 63.7109 24.8945C63.9616 24.5163 64.0869 23.9421 64.0869 23.1719C64.0869 22.3971 63.9616 21.8252 63.7109 21.4561ZM49.0137 34.7422H45.377V36.9365H48.7539V38.6729H45.377V41.25H49.0137V43H43.2578V33.0059H49.0137V34.7422ZM54.0449 43.1367C51.666 43.1367 50.4766 41.8311 50.4766 39.2197C50.4766 37.9255 50.8001 36.9342 51.4473 36.2461C52.0944 35.5579 53.0218 35.2139 54.2295 35.2139C55.1182 35.2139 55.9089 35.387 56.6016 35.7334L55.9932 37.3467C55.2549 37.0459 54.667 36.8955 54.2295 36.8955C53.1449 36.8955 52.6025 37.6543 52.6025 39.1719C52.6025 40.6895 53.1449 41.4482 54.2295 41.4482C54.9951 41.4482 55.7083 41.2272 56.3691 40.7852V42.5693C56.0137 42.7972 55.6719 42.9453 55.3438 43.0137C55.002 43.0957 54.569 43.1367 54.0449 43.1367ZM61.4619 35.2139C62.1637 35.2139 62.7904 35.3734 63.3418 35.6924C63.8978 36.0068 64.3262 36.4626 64.627 37.0596C64.9323 37.652 65.085 38.3311 65.085 39.0967C65.085 39.1195 65.085 39.1423 65.085 39.165C65.085 40.4092 64.7568 41.3822 64.1006 42.084C63.4443 42.7858 62.5306 43.1367 61.3594 43.1367C61.3411 43.1367 61.3206 43.1367 61.2979 43.1367C60.596 43.1367 59.9671 42.9772 59.4111 42.6582C58.8597 42.3346 58.4313 41.8743 58.126 41.2773C57.8252 40.6803 57.6748 39.999 57.6748 39.2334C57.6748 39.2106 57.6748 39.1878 57.6748 39.165C57.6748 37.9163 58.0007 36.9479 58.6523 36.2598C59.304 35.5625 60.2201 35.2139 61.4004 35.2139C61.4186 35.2139 61.4391 35.2139 61.4619 35.2139ZM62.5762 37.4561C62.3255 37.0824 61.9245 36.8955 61.373 36.8955C60.8216 36.8955 60.4206 37.0801 60.1699 37.4492C59.9238 37.8184 59.8008 38.3903 59.8008 39.165C59.8008 39.9352 59.9261 40.5117 60.1768 40.8945C60.432 41.2728 60.833 41.4619 61.3799 41.4619C61.9313 41.4619 62.3301 41.2728 62.5762 40.8945C62.8268 40.5163 62.9521 39.9421 62.9521 39.1719C62.9521 38.3971 62.8268 37.8252 62.5762 37.4561ZM47.7012 59H45.3906L42 49.0059H44.1396L46.0195 54.9531C46.1335 55.3405 46.2428 55.7552 46.3477 56.1973C46.4525 56.6348 46.5208 56.9538 46.5527 57.1543C46.6029 56.7305 46.7738 55.9967 47.0654 54.9531L48.959 49.0059H51.0986L47.7012 59ZM52.1104 49.3887C52.1104 48.7051 52.4886 48.3633 53.2451 48.3633C54.0016 48.3633 54.3799 48.7028 54.3799 49.3818C54.3799 49.71 54.2842 49.9629 54.0928 50.1406C53.9014 50.3184 53.6188 50.4072 53.2451 50.4072C52.4886 50.4072 52.1104 50.0677 52.1104 49.3887ZM54.2842 59H52.1992V51.3574H54.2842V59ZM58.5635 59H56.4785V48.3633H58.5635V59ZM62.8428 59H60.7578V48.3633H62.8428V59ZM65.2422 51.8906C66.1263 51.4303 67.0947 51.2002 68.1475 51.2002C69.2002 51.2002 69.9954 51.4258 70.5332 51.877C71.0755 52.3281 71.3467 53.0049 71.3467 53.9072V59H69.8906L69.4873 57.9609H69.4326C69.0817 58.4076 68.7217 58.7152 68.3525 58.8838C67.9834 59.0524 67.498 59.1367 66.8965 59.1367C66.1673 59.1367 65.5885 58.9271 65.1602 58.5078C64.7409 58.0885 64.5312 57.4847 64.5312 56.6963C64.5312 55.9079 64.8115 55.32 65.3721 54.9326C65.9326 54.5407 66.7917 54.3242 67.9492 54.2832L69.2754 54.2422V53.9072C69.2754 53.1325 68.8789 52.7451 68.0859 52.7451C67.4753 52.7451 66.7575 52.9297 65.9326 53.2988L65.2422 51.8906ZM66.6709 56.7305C66.6709 57.3184 67.0081 57.6123 67.6826 57.6123C68.1702 57.6123 68.5576 57.4733 68.8447 57.1953C69.1318 56.9173 69.2754 56.5482 69.2754 56.0879V55.459L68.4688 55.4863C67.8626 55.5046 67.4115 55.6139 67.1152 55.8145C66.819 56.015 66.6709 56.3203 66.6709 56.7305ZM76.1865 57.4209H77.4854C78.3239 57.4209 78.9619 57.6032 79.3994 57.9678C79.8415 58.3278 80.0625 58.8542 80.0625 59.5469C80.0625 60.4401 79.6888 61.1328 78.9414 61.625C78.1986 62.1172 77.1299 62.3633 75.7354 62.3633C74.6735 62.3633 73.86 62.1787 73.2949 61.8096C72.7298 61.4404 72.4473 60.9186 72.4473 60.2441C72.4473 59.7839 72.5908 59.3988 72.8779 59.0889C73.165 58.779 73.5866 58.5579 74.1426 58.4258C73.9329 58.3438 73.7461 58.1956 73.582 57.9814C73.4225 57.7673 73.3428 57.5348 73.3428 57.2842C73.3428 57.029 73.4202 56.8057 73.5752 56.6143C73.7347 56.4183 73.9854 56.2201 74.3271 56.0195C73.9215 55.8418 73.6025 55.5615 73.3701 55.1787C73.1377 54.7959 73.0215 54.347 73.0215 53.832C73.0215 52.998 73.2926 52.3532 73.835 51.8975C74.3773 51.4417 75.152 51.2139 76.1592 51.2139C76.3734 51.2139 76.6263 51.2344 76.918 51.2754C77.2142 51.3118 77.4033 51.3392 77.4854 51.3574H80.1514V52.417L78.9551 52.7246C79.1738 53.0755 79.2832 53.4583 79.2832 53.873C79.2832 54.6934 78.9984 55.3337 78.4287 55.7939C77.859 56.2497 77.0638 56.4775 76.043 56.4775L75.667 56.457L75.3594 56.4229C75.1452 56.5869 75.0381 56.7692 75.0381 56.9697C75.0381 57.2705 75.4209 57.4209 76.1865 57.4209ZM76.1592 52.4785C75.3936 52.4785 75.0107 52.9388 75.0107 53.8594C75.0107 54.2832 75.1064 54.6136 75.2979 54.8506C75.4938 55.0876 75.7809 55.2061 76.1592 55.2061C76.542 55.2061 76.8268 55.0898 77.0137 54.8574C77.2005 54.6204 77.2939 54.2878 77.2939 53.8594C77.2939 52.9388 76.9157 52.4785 76.1592 52.4785ZM76.6787 59.0957H75.5986C75.2158 59.0957 74.8945 59.1846 74.6348 59.3623C74.3796 59.5492 74.252 59.7861 74.252 60.0732C74.252 60.3649 74.391 60.5928 74.6689 60.7568C74.9469 60.9209 75.332 61.0029 75.8242 61.0029C76.5716 61.0029 77.1572 60.9004 77.5811 60.6953C78.0049 60.4902 78.2168 60.21 78.2168 59.8545C78.2168 59.5765 78.0938 59.3805 77.8477 59.2666C77.6061 59.1527 77.2165 59.0957 76.6787 59.0957ZM87.5615 58.5967C86.8597 58.9567 85.9642 59.1367 84.875 59.1367C83.6445 59.1367 82.6829 58.7972 81.9902 58.1182C81.2975 57.4391 80.9512 56.4684 80.9512 55.2061C80.9512 53.9437 81.2702 52.9661 81.9082 52.2734C82.5462 51.5671 83.4189 51.2139 84.5264 51.2139C85.6338 51.2139 86.486 51.5215 87.083 52.1367C87.6891 52.7474 87.9922 53.5973 87.9922 54.6865V55.6982H83.0635C83.0863 56.2952 83.2617 56.7601 83.5898 57.0928C83.9225 57.4209 84.3828 57.585 84.9707 57.585C85.8366 57.585 86.7002 57.3844 87.5615 56.9834V58.5967ZM86.0371 54.3105C86.028 53.8001 85.8936 53.4036 85.6338 53.1211C85.3786 52.8385 85.0299 52.6973 84.5879 52.6973C84.1458 52.6973 83.7972 52.8363 83.542 53.1143C83.2913 53.3923 83.1478 53.791 83.1113 54.3105H86.0371Z" fill="#565656"/>
<defs>
<clipPath id="clip0">
<rect width="30" height="30" fill="white" transform="translate(7 23)"/>
</clipPath>
</defs>
</svg>
