<svg width="35" height="25" viewBox="0 0 35 25" fill="none" xmlns="http://www.w3.org/2000/svg">
<path d="M33.9062 18.5156H33.3594V14.1406C33.3586 13.5607 33.1279 13.0047 32.7178 12.5947C32.3078 12.1846 31.7518 11.9539 31.1719 11.9531V2.65625C31.1711 2.07632 30.9404 1.52036 30.5303 1.11029C30.1203 0.700222 29.5643 0.46951 28.9844 0.46875H6.01562C5.4357 0.46951 4.87974 0.700222 4.46967 1.11029C4.0596 1.52036 3.82888 2.07632 3.82812 2.65625V11.9531C3.2482 11.9539 2.69224 12.1846 2.28217 12.5947C1.8721 13.0047 1.64138 13.5607 1.64062 14.1406V18.5156H1.09375C0.94871 18.5156 0.80961 18.5732 0.707051 18.6758C0.604492 18.7784 0.546875 18.9175 0.546875 19.0625V21.25C0.546875 21.395 0.604492 21.5341 0.707051 21.6367C0.80961 21.7393 0.94871 21.7969 1.09375 21.7969H1.64062V23.9844C1.64062 24.1294 1.69824 24.2685 1.8008 24.3711C1.90336 24.4736 2.04246 24.5312 2.1875 24.5312H3.82812C3.95452 24.5313 4.07702 24.4875 4.17475 24.4074C4.27248 24.3272 4.33938 24.2157 4.36406 24.0917L4.82344 21.7969H30.1766L30.6359 24.0917C30.6606 24.2157 30.7275 24.3272 30.8253 24.4074C30.923 24.4875 31.0455 24.5313 31.1719 24.5312H32.8125C32.9575 24.5312 33.0966 24.4736 33.1992 24.3711C33.3018 24.2685 33.3594 24.1294 33.3594 23.9844V21.7969H33.9062C34.0513 21.7969 34.1904 21.7393 34.2929 21.6367C34.3955 21.5341 34.4531 21.395 34.4531 21.25V19.0625C34.4531 18.9175 34.3955 18.7784 34.2929 18.6758C34.1904 18.5732 34.0513 18.5156 33.9062 18.5156ZM4.92188 2.65625C4.92226 2.36629 5.03761 2.08831 5.24265 1.88327C5.44768 1.67824 5.72566 1.56288 6.01562 1.5625H28.9844C29.2743 1.56288 29.5523 1.67824 29.7574 1.88327C29.9624 2.08831 30.0777 2.36629 30.0781 2.65625V11.9531H28.9844V9.76562C28.9836 9.1857 28.7529 8.62974 28.3428 8.21967C27.9328 7.8096 27.3768 7.57888 26.7969 7.57812H20.2344C19.6544 7.57888 19.0985 7.8096 18.6884 8.21967C18.2783 8.62974 18.0476 9.1857 18.0469 9.76562V11.9531H16.9531V9.76562C16.9524 9.1857 16.7217 8.62974 16.3116 8.21967C15.9015 7.8096 15.3456 7.57888 14.7656 7.57812H8.20312C7.6232 7.57888 7.06724 7.8096 6.65717 8.21967C6.2471 8.62974 6.01638 9.1857 6.01562 9.76562V11.9531H4.92188V2.65625ZM27.8906 9.76562V11.9531H19.1406V9.76562C19.141 9.47566 19.2564 9.19768 19.4614 8.99265C19.6664 8.78761 19.9444 8.67225 20.2344 8.67188H26.7969C27.0868 8.67225 27.3648 8.78761 27.5699 8.99265C27.7749 9.19768 27.8902 9.47566 27.8906 9.76562ZM15.8594 9.76562V11.9531H7.10938V9.76562C7.10976 9.47566 7.22511 9.19768 7.43015 8.99265C7.63518 8.78761 7.91316 8.67225 8.20312 8.67188H14.7656C15.0556 8.67225 15.3336 8.78761 15.5386 8.99265C15.7436 9.19768 15.859 9.47566 15.8594 9.76562ZM2.73438 14.1406C2.73475 13.8507 2.85011 13.5727 3.05515 13.3676C3.26018 13.1626 3.53816 13.0473 3.82812 13.0469H31.1719C31.4618 13.0473 31.7398 13.1626 31.9449 13.3676C32.1499 13.5727 32.2652 13.8507 32.2656 14.1406V18.5156H2.73438V14.1406ZM3.37969 23.4375H2.73438V21.7969H3.70781L3.37969 23.4375ZM32.2656 23.4375H31.6203L31.2922 21.7969H32.2656V23.4375ZM33.3594 20.7031H1.64062V19.6094H33.3594V20.7031Z" fill="#7E8D1F"/>
</svg>
