<svg width="35" height="31" viewBox="0 0 35 31" fill="none" xmlns="http://www.w3.org/2000/svg">
<path d="M33.9062 17.1406H31.1719V5.65625C31.1719 4.20585 30.5957 2.81485 29.5701 1.78926C28.5445 0.76367 27.1535 0.1875 25.7031 0.1875C24.2527 0.1875 22.8617 0.76367 21.8361 1.78926C20.8105 2.81485 20.2344 4.20585 20.2344 5.65625V5.70273C19.4703 5.83284 18.7768 6.22884 18.2765 6.82077C17.7761 7.41269 17.5011 8.16243 17.5 8.9375V10.5781C17.5 10.7232 17.5576 10.8623 17.6602 10.9648C17.7627 11.0674 17.9018 11.125 18.0469 11.125H23.5156C23.6607 11.125 23.7998 11.0674 23.9023 10.9648C24.0049 10.8623 24.0625 10.7232 24.0625 10.5781V8.9375C24.0614 8.16243 23.7864 7.41269 23.286 6.82077C22.7857 6.22884 22.0922 5.83284 21.3281 5.70273V5.65625C21.3281 4.49593 21.7891 3.38313 22.6095 2.56266C23.43 1.74219 24.5428 1.28125 25.7031 1.28125C26.8634 1.28125 27.9762 1.74219 28.7967 2.56266C29.6172 3.38313 30.0781 4.49593 30.0781 5.65625V17.1406H1.09375C0.94871 17.1406 0.80961 17.1982 0.707051 17.3008C0.604492 17.4034 0.546875 17.5425 0.546875 17.6875V19.3281C0.546875 19.4732 0.604492 19.6123 0.707051 19.7148C0.80961 19.8174 0.94871 19.875 1.09375 19.875H2.1875V24.7969C2.18881 25.717 2.52099 26.606 3.12339 27.3015C3.72579 27.997 4.55823 28.4527 5.46875 28.5854V30.2656C5.46875 30.4107 5.52637 30.5498 5.62893 30.6523C5.73148 30.7549 5.87058 30.8125 6.01562 30.8125H8.20312C8.34817 30.8125 8.48727 30.7549 8.58982 30.6523C8.69238 30.5498 8.75 30.4107 8.75 30.2656V28.625H26.25V30.2656C26.25 30.4107 26.3076 30.5498 26.4102 30.6523C26.5127 30.7549 26.6518 30.8125 26.7969 30.8125H28.9844C29.1294 30.8125 29.2685 30.7549 29.3711 30.6523C29.4736 30.5498 29.5312 30.4107 29.5312 30.2656V28.5854C30.4418 28.4527 31.2742 27.997 31.8766 27.3015C32.479 26.606 32.8112 25.717 32.8125 24.7969V19.875H33.9062C34.0513 19.875 34.1904 19.8174 34.2929 19.7148C34.3955 19.6123 34.4531 19.4732 34.4531 19.3281V17.6875C34.4531 17.5425 34.3955 17.4034 34.2929 17.3008C34.1904 17.1982 34.0513 17.1406 33.9062 17.1406ZM22.9688 10.0312H18.5938V9.48438H22.9688V10.0312ZM22.8997 8.39062H18.6628C18.7841 7.92104 19.0581 7.50509 19.4415 7.20813C19.825 6.91116 20.2962 6.75002 20.7812 6.75002C21.2663 6.75002 21.7375 6.91116 22.121 7.20813C22.5044 7.50509 22.7784 7.92104 22.8997 8.39062ZM7.65625 29.7188H6.5625V28.625H7.65625V29.7188ZM28.4375 29.7188H27.3438V28.625H28.4375V29.7188ZM31.7188 24.7969C31.718 25.5219 31.4297 26.2169 30.9171 26.7296C30.4044 27.2422 29.7094 27.5305 28.9844 27.5312H6.01562C5.29065 27.5305 4.59557 27.2422 4.08293 26.7296C3.57029 26.2169 3.28197 25.5219 3.28125 24.7969V19.875H31.7188V24.7969ZM33.3594 18.7812H1.64062V18.2344H33.3594V18.7812Z" fill="#7E8D1F"/>
</svg>
