<svg width="35" height="25" viewBox="0 0 35 25" fill="none" xmlns="http://www.w3.org/2000/svg">
<path d="M28.8255 9.66767C30.2189 8.72725 31.1369 7.134 31.1369 5.33034C31.1369 2.44646 28.7907 0.100234 25.9068 0.100234C23.023 0.100234 20.6767 2.44646 20.6767 5.33034C20.6767 7.13318 21.5939 8.72582 22.9862 9.66644C21.9719 10.0098 21.0223 10.5327 20.1791 11.2183C19.4657 10.5321 18.5083 10.137 17.5001 10.137C16.4919 10.137 15.5345 10.5323 14.8215 11.2183C13.9781 10.5327 13.0283 10.0098 12.0138 9.66638C13.4062 8.72575 14.3233 7.13311 14.3233 5.3302C14.3233 2.44633 11.9771 0.100098 9.09323 0.100098C6.2097 0.100098 3.86381 2.44633 3.86381 5.3302C3.86381 7.13387 4.78167 8.72705 6.17483 9.66754C2.59362 10.8844 0.00868164 14.2767 0.000957031 18.2625C0.000751953 18.2686 0 18.2743 0 18.2803C0 19.334 0.598691 20.8889 3.45105 22.3135C5.48352 23.3287 8.27654 24.0918 11.5283 24.5202C13.4356 24.7717 15.4448 24.8994 17.5001 24.8994C19.5558 24.8994 21.5652 24.7718 23.4725 24.5202C26.7239 24.0918 29.5168 23.3287 31.5492 22.3135C34.4013 20.8889 35 19.334 35 18.2803C35 14.2869 32.4123 10.8864 28.8255 9.66767ZM22.0493 5.33034C22.0493 3.20327 23.7798 1.47282 25.9068 1.47282C28.0338 1.47282 29.7644 3.20334 29.7644 5.33034C29.7644 7.45707 28.0338 9.18718 25.9068 9.18718C23.7798 9.18718 22.0493 7.45707 22.0493 5.33034ZM15.4524 12.5817C15.9186 11.9104 16.684 11.5095 17.5 11.5095C18.3164 11.5095 19.082 11.9104 19.5483 12.5817C19.5483 12.5819 19.5485 12.582 19.5485 12.5822C19.8395 13.0005 19.9931 13.4916 19.9931 14.0028C19.9931 15.3775 18.8747 16.496 17.4999 16.496C16.1255 16.496 15.0074 15.3775 15.0074 14.0027C15.0074 13.4908 15.161 12.9998 15.4524 12.5817ZM5.23626 5.33034C5.23626 3.20327 6.96644 1.47282 9.0931 1.47282C11.2202 1.47282 12.9506 3.20334 12.9506 5.33034C12.9506 7.45707 11.2201 9.18718 9.0931 9.18718C6.96644 9.18718 5.23626 7.45707 5.23626 5.33034ZM10.932 23.0492C8.16443 22.6277 5.80193 21.9535 4.06444 21.0857C2.33358 20.2213 1.37847 19.2281 1.37293 18.2885C1.37293 18.2858 1.37334 18.2831 1.37334 18.2804C1.37327 14.0233 4.83643 10.5598 9.09316 10.5598C10.9041 10.5598 12.6319 11.1854 14.0146 12.3313C13.7653 12.8494 13.635 13.4174 13.635 14.0028C13.635 15.1975 14.1799 16.2673 15.0339 16.977C12.6351 17.9523 10.9382 20.3058 10.932 23.0492ZM22.6965 23.2328C21.0272 23.4276 19.2825 23.5269 17.5 23.5269C15.7179 23.5269 13.9735 23.4276 12.3042 23.2328V23.0643C12.3042 20.1993 14.635 17.8685 17.5 17.8685C20.3654 17.8685 22.6965 20.1993 22.6965 23.0643V23.2328ZM30.9358 21.0856C29.1984 21.9535 26.8362 22.6277 24.0689 23.0491C24.0627 20.3057 22.3656 17.9524 19.9666 16.9769C20.8209 16.2672 21.3659 15.1975 21.3659 14.0027C21.3659 13.4179 21.2356 12.8498 20.9861 12.3312C22.3681 11.1853 24.0957 10.5596 25.907 10.5596C30.1641 10.5597 33.6275 14.0232 33.6275 18.2803C33.6275 19.2224 32.6715 20.2187 30.9358 21.0856Z" fill="#7E8D1F"/>
</svg>
