<svg width="40" height="40" viewBox="0 0 40 40" fill="none" xmlns="http://www.w3.org/2000/svg">
<path d="M32.0457 5.30609H7.95429C3.56816 5.30609 0 8.88568 0 13.2849V26.7143C0 31.1143 3.56816 34.693 7.95429 34.693H32.0457C36.4318 34.693 40 31.1134 40 26.7143V13.2849C40 8.88568 36.4318 5.30609 32.0457 5.30609ZM38.3673 26.7151C38.3673 30.2147 35.5314 33.0612 32.0457 33.0612H7.95429C4.46857 33.0612 1.63265 30.2138 1.63265 26.7151V13.2849C1.63265 9.78609 4.46857 6.93874 7.95429 6.93874H32.0457C35.5314 6.93874 38.3673 9.78609 38.3673 13.2849V26.7151Z" fill="white"/>
<path d="M27.2326 19.7044L15.9224 13.0799C15.671 12.933 15.3583 12.9306 15.1045 13.0759C14.8506 13.2212 14.6938 13.4914 14.6938 13.7844V27.0326C14.6938 27.3248 14.8506 27.5959 15.1036 27.7412C15.2294 27.813 15.3698 27.8489 15.5102 27.8489C15.653 27.8489 15.7951 27.8114 15.9224 27.7371L27.2326 21.1142C27.4824 20.9681 27.6367 20.6995 27.6367 20.4097C27.6367 20.1199 27.4832 19.8506 27.2326 19.7044ZM16.3265 25.6081V15.2081L25.2049 20.4089L16.3265 25.6081Z" fill="white"/>
</svg>
