<svg width="100" height="88" viewBox="0 0 100 88" fill="none" xmlns="http://www.w3.org/2000/svg">
<path d="M97.0703 58.5466H94.0094C97.9034 52.4637 100 45.3752 100 38.0388C100 36.4206 98.6885 35.1091 97.0703 35.1091H53.5416L25.1686 12.3666C26.5701 9.15008 25.9605 5.25909 23.333 2.63153C19.8982 -0.803227 14.3379 -0.803989 10.9032 2.63153L2.61612 10.9178C-0.810242 14.3449 -0.810242 19.9205 2.61612 23.3476C5.18341 25.9149 8.94241 26.5504 12.101 25.2901L18.5303 35.1091H2.92969C1.31149 35.1091 0 36.4206 0 38.0388C0 56.0152 12.5198 71.1206 29.2969 75.0993V84.9138C29.2969 86.532 30.6084 87.8435 32.2266 87.8435H79.4922C90.8005 87.8435 100 78.644 100 67.3357V61.4763C100 59.8581 98.6885 58.5466 97.0703 58.5466ZM79.995 67.3357C79.995 71.2488 78.4714 74.9269 75.7042 77.6941L73.6328 79.7655L71.5614 77.6941C68.7943 74.9269 67.2707 71.2488 67.2707 67.3357C67.2707 66.3393 67.3706 65.3581 67.5644 64.4029C67.5682 64.3846 67.5728 64.3663 67.5766 64.348C68.1488 61.5747 69.5129 59.0265 71.5614 56.978L73.6328 54.9066L75.7042 56.978C77.7527 59.0257 79.1176 61.5747 79.689 64.3472C79.6928 64.3663 79.6974 64.3846 79.7012 64.4029C79.895 65.3581 79.995 66.3393 79.995 67.3357ZM67.4179 81.8369L67.5598 81.9788C59.581 81.8636 53.125 75.3412 53.125 67.3357V64.406H56.0547C57.9262 64.406 59.7763 64.7653 61.4975 65.4527C61.441 66.0753 61.4113 66.7032 61.4113 67.3357C61.4113 72.8136 63.5445 77.9634 67.4179 81.8369ZM6.75964 19.2041C5.61752 18.062 5.61752 16.2035 6.75964 15.0606L15.0459 6.77429C16.1911 5.62912 18.0443 5.62912 19.1895 6.77429C20.3316 7.91717 20.3316 9.77569 19.1895 10.9178C19.1895 10.9178 10.9062 19.2003 10.9016 19.2056C9.75952 20.3462 7.90176 20.3462 6.75964 19.2041ZM16.7297 21.6638L21.4767 16.9168L44.1727 35.1091H25.5341L16.7297 21.6638ZM5.99136 40.9685H94.0086C93.3998 47.6884 90.7043 54.0331 86.2572 59.1554C85.6277 59.3118 85.006 59.498 84.3948 59.7124C83.3771 57.1672 81.8443 54.8311 79.8477 52.8345L75.7042 48.6917C75.1549 48.1416 74.4095 47.8334 73.6328 47.8334C72.8561 47.8334 72.1107 48.1416 71.5614 48.6917L67.4179 52.8345C65.4213 54.8311 63.8885 57.168 62.8708 59.7124C60.6911 58.9464 58.3839 58.5466 56.0547 58.5466H50.1953C48.5779 58.5466 47.2656 59.8581 47.2656 61.4763V67.3357C47.2656 68.3305 47.3381 69.3079 47.4762 70.2654H38.0859C21.3028 70.2654 7.47528 57.3717 5.99136 40.9685ZM35.1562 81.9841V76.0133C37.6175 76.201 38.5658 76.0942 49.247 76.1247C50.293 78.3205 51.7181 80.3018 53.437 81.9841H35.1562ZM94.1406 67.3357C94.1406 75.3412 87.6846 81.8636 79.7058 81.9788L79.8477 81.8369C83.7212 77.9634 85.8543 72.8136 85.8543 67.3357C85.8543 66.7032 85.8246 66.0753 85.7681 65.4527C87.4893 64.7653 89.3394 64.406 91.2109 64.406H94.1406V67.3357Z" fill="#7E8D1F"/>
</svg>
