<svg width="100" height="66" viewBox="0 0 100 66" fill="none" xmlns="http://www.w3.org/2000/svg">
<path d="M91.7416 8.01816H89.8061C89.0244 8.01816 88.2688 8.12969 87.5518 8.33359C86.8211 4.52207 83.4639 1.63262 79.4426 1.63262H77.5072C72.9535 1.63262 69.2486 5.3375 69.2486 9.89102V23.2207H30.7512V8.2584C30.7512 3.70469 27.0463 0 22.4928 0H20.5574C16.5361 0 13.1789 2.88945 12.4484 6.70098C11.7312 6.49707 10.9756 6.38555 10.1939 6.38555H8.25859C3.70488 6.38555 0 10.09 0 14.6439V48.9799C0 53.5336 3.70488 57.2383 8.2584 57.2383H10.1938C10.9754 57.2383 11.7311 57.1268 12.4482 56.9228C13.1789 60.7344 16.5361 63.6238 20.5572 63.6238H22.4926C27.0463 63.6238 30.751 59.9189 30.751 55.3654V43.3728H69.2484V56.9982C69.2484 61.5519 72.9533 65.2566 77.507 65.2566H79.4424C83.4637 65.2566 86.8211 62.367 87.5516 58.5557C88.2686 58.7596 89.0244 58.8711 89.8059 58.8711H91.7414C96.2949 58.8711 99.9998 55.1662 99.9998 50.6127V16.2766C100 11.7229 96.2951 8.01816 91.7416 8.01816ZM12.299 48.9799C12.299 50.1408 11.3547 51.0854 10.1938 51.0854H8.2584C7.09746 51.0854 6.15312 50.1408 6.15312 48.9799V14.6439C6.15312 13.483 7.09746 12.5387 8.2584 12.5387H10.1938C11.3547 12.5387 12.299 13.483 12.299 14.6439V48.9799ZM24.598 55.3656C24.598 56.5266 23.6537 57.4709 22.4928 57.4709H20.5574C19.3965 57.4709 18.4521 56.5266 18.4521 55.3656V8.25801C18.4521 7.09707 19.3967 6.15273 20.5574 6.15273H22.4928C23.6537 6.15273 24.598 7.09707 24.598 8.25801V55.3656ZM69.2488 37.2199H30.7512V29.3736H69.2486V37.2199H69.2488ZM81.5479 56.9984C81.5479 58.1594 80.6035 59.1037 79.4424 59.1037H77.507C76.3461 59.1037 75.4016 58.1594 75.4016 56.9984V9.89082C75.4016 8.72988 76.3459 7.78554 77.507 7.78554H79.4424C80.6033 7.78554 81.5479 8.72988 81.5479 9.89082V56.9984ZM93.8469 50.6125C93.8469 51.7734 92.9025 52.7178 91.7416 52.7178H89.8061C88.6453 52.7178 87.7008 51.7734 87.7008 50.6125V16.2766C87.7008 15.1156 88.6451 14.1713 89.8061 14.1713H91.7416C92.9023 14.1713 93.8469 15.1156 93.8469 16.2766V50.6125Z" fill="#7E8D1F"/>
</svg>
