<svg width="100" height="100" viewBox="0 0 100 100" fill="none" xmlns="http://www.w3.org/2000/svg">
<path d="M6.86329 70.7589C13.8122 63.81 25.1174 63.81 32.0663 70.7581C32.067 70.7589 32.067 70.7589 32.0678 70.7597C42.0837 80.7748 58.2969 80.7778 68.3166 70.7604C68.3174 70.7597 68.3181 70.7589 68.3197 70.7574C75.2678 63.81 86.573 63.81 93.5211 70.7589C95.047 72.284 97.5204 72.284 99.0456 70.7589C100.571 69.233 100.571 66.7603 99.0456 65.2345C91.0553 57.2442 79.0596 55.6435 69.4625 60.4287V11.5875C69.4625 9.50547 71.1563 7.81175 73.2383 7.81175C75.3204 7.81175 77.0141 9.50624 77.0141 11.5875C77.0141 13.7451 78.7628 15.4938 80.9204 15.4938C83.0772 15.4938 84.8259 13.7451 84.8259 11.5875C84.8259 5.19868 79.628 0 73.2383 0C66.8487 0 61.65 5.19868 61.65 11.5875V23.0454H38.7351V11.5875C38.7351 9.50547 40.4289 7.81175 42.5102 7.81175C44.593 7.81175 46.2859 9.50624 46.2859 11.5875C46.2859 13.7451 48.0354 15.4938 50.1922 15.4938C52.3498 15.4938 54.0985 13.7451 54.0985 11.5875C54.0985 5.19868 48.9005 0 42.5102 0C36.1213 0 30.9226 5.19868 30.9226 11.5875V60.4287C21.3256 55.6435 9.32988 57.2449 1.3396 65.2345C-0.18628 66.7603 -0.18628 69.233 1.3396 70.7589C2.86472 72.284 5.33817 72.284 6.86329 70.7589ZM38.7351 66.2797V53.9033H61.65V66.2797C55.1414 71.7637 45.4429 71.9308 38.7351 66.2797ZM61.65 30.8579V46.0908H38.7351V30.8579H61.65ZM99.0456 86.9622C100.571 88.4881 100.571 90.9608 99.0456 92.4859C97.5204 94.0118 95.047 94.0118 93.5211 92.4859C86.573 85.5378 75.2662 85.5378 68.3181 92.4859C58.2992 102.506 42.0844 102.504 32.067 92.4859C25.1182 85.5378 13.8122 85.5378 6.86329 92.4859C5.33817 94.0118 2.86472 94.0118 1.3396 92.4859C-0.185517 90.9608 -0.18628 88.4874 1.3396 86.9622C11.3341 76.9677 27.5962 76.9677 37.5907 86.9622C44.5564 93.9279 55.8303 93.9271 62.7944 86.9622C72.789 76.9677 89.051 76.9677 99.0456 86.9622Z" fill="#7E8D1F"/>
</svg>
