<svg width="100" height="100" viewBox="0 0 100 100" fill="none" xmlns="http://www.w3.org/2000/svg">
<path d="M99.2889 78.9675C97.3983 74.5595 92.027 72.4427 87.5522 74.349C85.6174 75.1794 84.3723 75.729 82.2248 76.5429V41.0223H91.2092C96.0555 41.0223 99.9983 37.0796 99.9983 32.2333V28.8008C99.9983 26.4282 99.0606 24.2034 97.3999 22.5622L88.9292 14.2866C88.6616 14.0199 88.3784 13.775 88.0842 13.5479V8.79592C88.0842 3.94962 84.1414 0.00683594 79.2952 0.00683594C64.7565 0.00703125 52.9281 11.8352 52.9281 26.3741V32.2335C52.9281 33.8489 51.6139 35.1632 49.9984 35.1632H32.4205C30.5373 35.1632 28.6877 35.4245 26.9107 35.9305C24.6527 32.535 21.0752 30.1512 17.0855 29.502C8.08864 28.0395 -0.00120939 34.9079 -0.00120939 43.9518V67.7798C-0.00120939 69.3978 1.31051 70.7095 2.92848 70.7095C6.2236 70.7095 9.26755 69.6152 11.7176 67.7718V74.1433C7.3861 72.6095 2.53649 74.6902 0.707385 78.9689C-1.19965 83.4214 0.872815 88.598 5.33024 90.5096C19.1873 96.4326 33.283 99.9922 49.9983 99.9922C66.835 99.9922 80.9954 96.3654 94.6696 90.5082C99.1241 88.5978 101.196 83.4213 99.2889 78.9675ZM58.7873 32.2333V26.3739C58.7873 15.0659 67.9871 5.86622 79.295 5.86622C80.9104 5.86622 82.2246 7.18048 82.2246 8.79592V11.7256H79.295C71.2178 11.7256 64.6467 18.2969 64.6467 26.3739V32.2333C64.6467 33.8487 63.3324 35.163 61.717 35.163H58.2834C58.6086 34.2462 58.7873 33.2604 58.7873 32.2333ZM35.35 41.0223C36.484 41.0223 57.8285 41.0223 58.7873 41.0223V50.202C58.7873 51.8175 57.4731 53.1317 55.8576 53.1317H38.2797C36.6643 53.1317 35.35 51.8175 35.35 50.202V41.0223ZM29.4906 41.3307V50.202C29.4906 55.0483 33.4334 58.9911 38.2797 58.9911H55.8576C60.7039 58.9911 64.6467 55.0483 64.6467 50.202V40.5184C68.0567 39.3091 70.5061 36.0526 70.5061 32.2333V26.3739C70.5061 21.5276 74.4489 17.5848 79.2952 17.5848H82.7276C83.51 17.5848 84.2457 17.8895 84.7991 18.4428C84.8071 18.451 84.8153 18.4588 84.8233 18.4668L93.2907 26.7393C93.8378 27.2915 94.1389 28.0231 94.1389 28.801V32.2335C94.1389 33.8489 92.8247 35.1632 91.2092 35.1632H79.2952C77.6772 35.1632 76.3655 36.4749 76.3655 38.0928V78.5361C74.4276 79.122 72.4733 79.6431 70.5061 80.0972V79.4986C70.5061 71.4214 63.9348 64.8503 55.8578 64.8503H38.2797C30.5031 64.8503 24.1254 70.9425 23.6613 78.6042C21.6133 77.9906 19.5838 77.3025 17.5767 76.5415V56.0612C17.5767 48.922 22.7906 42.7532 29.4906 41.3307ZM64.6467 79.4986V81.249C59.8 82.038 54.8992 82.4351 49.9986 82.4404C43.1133 82.4478 36.2277 81.6818 29.4908 80.1421V79.4986C29.4908 74.6523 33.4336 70.7095 38.2799 70.7095H55.8578C60.7039 70.7097 64.6467 74.6525 64.6467 79.4986ZM11.7174 56.0612C11.7174 59.881 9.26833 63.1392 5.85798 64.3484V43.952C5.85798 38.6962 10.5215 34.3708 16.1447 35.2852C18.2166 35.6223 20.1058 36.7593 21.4601 38.4034C20.1564 39.2436 18.9308 40.2386 17.806 41.3804C13.8797 45.3661 11.7174 50.58 11.7174 56.0612ZM92.3616 85.1226C79.2795 90.7262 65.9137 94.1328 49.9986 94.1328C34.0309 94.1328 20.724 90.7166 7.63669 85.1232C6.15036 84.4857 5.45817 82.7597 6.0945 81.274C6.72927 79.7888 8.45603 79.0996 9.9404 79.7341C22.6775 85.1906 35.0725 88.3117 49.9986 88.2972C64.853 88.2828 77.2239 85.1591 89.8561 79.7365C91.3821 79.0863 93.2735 79.8066 93.9036 81.2759C94.5389 82.7597 93.8467 84.4857 92.3616 85.1226Z" fill="#7E8D1F"/>
</svg>
