<svg width="100" height="88" viewBox="0 0 100 88" fill="none" xmlns="http://www.w3.org/2000/svg">
<path d="M98.7834 0.607813C98.0195 0.0572267 97.0375 -0.092578 96.1439 0.205078C85.9137 3.61504 78.616 12.3764 76.9328 22.7662C69.5717 15.5512 59.8309 11.7734 50 11.7734C42.5537 11.7734 35.4043 13.8709 29.2969 17.7691C29.2969 16.2783 29.2969 4.48613 29.2969 2.98438C29.2969 1.36641 27.9852 0.0546875 26.3672 0.0546875C24.7492 0.0546875 23.4375 1.36641 23.4375 2.98438V14.7031C23.4375 16.3186 22.1232 17.6328 20.5078 17.6328H17.5781V2.98438C17.5781 1.36641 16.2664 0.0546875 14.6484 0.0546875C13.0305 0.0546875 11.7188 1.36641 11.7188 2.98438V17.6328H8.78906C7.17363 17.6328 5.85938 16.3186 5.85938 14.7031C5.85938 13.2854 5.85938 4.41152 5.85938 2.98438C5.85938 1.36641 4.54766 0.0546875 2.92969 0.0546875C1.31172 0.0546875 0 1.36641 0 2.98438V20.5625C0 25.1867 2.2082 29.5346 5.85938 32.2812V79.1562C5.85938 84.0025 9.80215 87.9453 14.6484 87.9453C19.4947 87.9453 23.4375 84.0025 23.4375 79.1562V77.3102C30.7232 84.2617 40.2834 87.9453 50 87.9453C62.8879 87.9453 75.2641 81.4002 82.4219 70.0982V79.1562C82.4219 84.0025 86.3646 87.9453 91.2109 87.9453C96.0572 87.9453 100 84.0025 100 79.1562V2.98438C100 2.04258 99.5475 1.1584 98.7834 0.607813ZM14.6484 82.0859C13.033 82.0859 11.7188 80.7717 11.7188 79.1562V30.7135C11.7188 29.6678 11.1613 28.7012 10.2561 28.1775C8.30391 27.0482 6.88848 25.2184 6.24609 23.1156C7.05156 23.3596 7.90488 23.4922 8.78906 23.4922H20.5078C21.392 23.4922 22.2453 23.3596 23.051 23.1156C22.4086 25.2184 20.9932 27.0482 19.041 28.1775C18.1355 28.7012 17.5781 29.6678 17.5781 30.7135V79.1562C17.5781 80.7717 16.2639 82.0859 14.6484 82.0859ZM50 82.0859C39.351 82.0859 29.4877 76.9816 23.4375 68.3898V32.2812C25.6377 30.626 27.3129 28.3891 28.2977 25.8609C34.1514 20.6244 42.0207 17.6328 50 17.6328C60.649 17.6328 70.5123 22.7371 76.5625 31.3289V55.7188C76.5625 57.3367 77.8742 58.6465 79.4922 58.6465H81.202C77.3107 72.2244 64.4734 82.0859 50 82.0859ZM94.1406 79.1562C94.1406 80.7717 92.8264 82.0859 91.2109 82.0859C89.5955 82.0859 88.2812 80.7717 88.2812 79.1562V55.7188C88.2812 54.1008 86.9695 52.7891 85.3516 52.7891H82.4219C82.4219 48.8613 82.4219 30.658 82.4219 27.3727C82.4219 18.9793 86.9949 11.4156 94.1406 7.45625V79.1562Z" fill="#7E8D1F"/>
</svg>
