<svg width="100" height="100" viewBox="0 0 100 100" fill="none" xmlns="http://www.w3.org/2000/svg">
<path d="M2.92969 99.998C4.54766 99.998 5.85938 98.6863 5.85938 97.0683V58.9824H11.7188V97.0683C11.7188 98.6863 13.0305 99.998 14.6484 99.998C16.2664 99.998 17.5781 98.6863 17.5781 97.0683V94.1386H29.2969V97.0683C29.2969 98.6863 30.6086 99.998 32.2266 99.998C33.8445 99.998 35.1562 98.6863 35.1562 97.0683V58.9824H41.0156V97.0683C41.0156 98.6863 42.3273 99.998 43.9453 99.998C45.5633 99.998 46.875 98.6863 46.875 97.0683V59.3861C52.882 61.0945 56.8475 68.0175 61.3436 75.8697C67.7979 87.141 75.2041 99.9986 91.1895 99.9986C91.2438 99.9986 97.0703 99.9982 97.0703 99.9982C98.6883 99.9982 100 98.6865 100 97.0685V85.3497C100 83.7318 98.6883 82.4201 97.0703 82.4201H91.2109C85.2512 82.4201 81.3055 75.4091 76.7367 67.2914C70.6045 56.3956 63.0541 42.9855 46.875 41.5355V20.8964C46.875 20.0726 46.5033 19.2427 45.876 18.6929L25.3682 0.724155C24.2598 -0.246548 22.5973 -0.23229 21.5068 0.724155L0.999023 18.6929C0.357812 19.2548 0 20.0802 0 20.8964V97.0683C0 98.6863 1.31172 99.998 2.92969 99.998ZM23.4375 6.82279L36.1562 17.9667H10.7188L23.4375 6.82279ZM5.85938 23.8261H41.0156V53.123H35.1562V41.4042C35.1562 34.9425 29.8992 29.6855 23.4375 29.6855C16.9758 29.6855 11.7188 34.9425 11.7188 41.4042V53.123H5.85938V23.8261ZM17.5781 70.7011H29.2969V76.5605H17.5781V70.7011ZM29.2969 64.8417H17.5781V58.9824H29.2969V64.8417ZM29.2969 53.123H17.5781V41.4042C17.5781 38.1734 20.2066 35.5449 23.4375 35.5449C26.6684 35.5449 29.2969 38.1734 29.2969 41.4042V53.123ZM17.5781 88.2792V82.4199H29.2969V88.2792H17.5781ZM71.6305 70.1648C76.3857 78.6144 81.5512 88.2792 91.2109 88.2792H94.1406V94.1386C94.1406 94.1386 91.251 94.139 91.2076 94.139C78.557 94.139 72.6648 83.8494 66.4283 72.9579C61.3566 64.1009 56.1279 54.9706 46.875 53.3701V47.4259C59.6379 48.8609 65.7283 59.6783 71.6305 70.1648Z" fill="#7E8D1F"/>
</svg>
