<svg width="100" height="100" viewBox="0 0 100 100" fill="none" xmlns="http://www.w3.org/2000/svg">
<path d="M99.0479 0.953367C97.7778 -0.317138 95.7182 -0.317138 94.4481 0.953367L78.4145 16.9869C77.1405 16.376 75.7145 16.0332 74.21 16.0332H46.6089C44.0023 16.0332 41.5519 17.0483 39.7089 18.8914L2.86152 55.7388C-0.952342 59.5527 -0.952733 65.7251 2.86152 69.5392L30.4623 97.1401C34.2759 100.954 40.4486 100.954 44.2626 97.1401L81.11 60.2927C82.9532 58.4497 83.9682 55.9992 83.9682 53.3927V25.7916C83.9682 24.2869 83.6255 22.8611 83.0145 21.5871L99.0481 5.55355C100.318 4.28305 100.318 2.22368 99.0479 0.953367ZM39.1281 57.6206C37.3316 57.6206 35.8753 59.0771 35.8753 60.8734V71.421L32.2279 67.7736C28.4232 63.9689 28.4232 57.7779 32.2279 53.973L39.1281 47.073L46.028 53.973C49.8329 57.7779 49.8329 63.9689 46.028 67.7736L42.3374 71.421V60.8734C42.3374 59.0769 40.9245 57.6206 39.1281 57.6206ZM77.4624 53.3925C77.4624 54.2615 77.1241 55.0781 76.5096 55.6925L42.3374 89.8214V80.621L50.6284 72.3734C56.9696 66.032 56.9696 55.714 50.6284 49.3726L41.4283 40.1724C40.1579 38.9019 38.0986 38.9021 36.8281 40.1724L27.6277 49.3726C21.2865 55.714 21.2865 66.032 27.6277 72.3734L35.8753 80.621V93.1321C35.5792 92.9794 35.3046 92.7821 35.0624 92.5399L7.46151 64.9392C6.19042 63.6677 6.19003 61.6105 7.46151 60.339L44.3089 23.4916C44.9232 22.8773 45.7402 22.5389 46.6089 22.5389H72.8624L66.5192 28.882C62.8927 27.1543 58.4128 27.7881 55.4146 30.7863C51.6099 34.591 51.6099 40.782 55.4146 44.5867C59.219 48.3914 65.4102 48.3916 69.2149 44.5867C72.2134 41.5883 72.8469 37.1086 71.1194 33.482L77.4626 27.1389V53.3925H77.4624ZM64.6147 39.9869C63.3431 41.2584 61.286 41.2584 60.0145 39.9869C58.7431 38.7152 58.7431 36.6582 60.0145 35.3867C61.2831 34.1183 63.3466 34.1185 64.6147 35.3867C65.8829 36.6549 65.8829 38.7183 64.6147 39.9869Z" fill="#7E8D1F"/>
</svg>
