<svg width="100" height="100" viewBox="0 0 100 100" fill="none" xmlns="http://www.w3.org/2000/svg">
<path d="M99.9938 38.7338C99.9977 38.4097 99.9991 38.0855 99.9991 37.7611C99.9991 32.0453 97.9868 26.6198 94.3003 22.3089C94.5534 21.0798 94.6814 19.8249 94.6814 18.5608C94.6814 8.32847 86.332 0.00390625 76.0696 0.00390625C65.8069 0.00390625 57.4576 8.32847 57.4576 18.5608C57.4576 19.8251 57.5855 21.0798 57.8386 22.3089C56.3554 24.0432 55.1439 25.9582 54.2248 27.9996C53.8037 28.1889 53.3941 28.4012 52.9972 28.6362C50.749 27.4973 48.2648 26.9026 45.7092 26.9026C40.8125 26.9026 36.1874 29.1539 33.1446 32.9039C32.1983 32.6775 31.2253 32.5635 30.2331 32.5635C29.164 32.5635 28.1189 32.6953 27.1066 32.9568C24.0658 29.1731 19.4277 26.9028 14.4977 26.9028C8.635 26.9028 3.22136 30.0889 0.36903 35.2174C-0.417489 36.6314 0.0914928 38.4152 1.50535 39.2017C1.95633 39.4523 2.4448 39.5716 2.92663 39.5716C3.95573 39.5716 4.95396 39.0285 5.4897 38.0654C7.30903 34.7941 10.7608 32.7621 14.4979 32.7621C18.1793 32.7621 21.6056 34.7488 23.4398 37.9467C24.2113 39.292 25.8976 39.8025 27.2857 39.1123C28.2052 38.6549 29.197 38.423 30.2331 38.423C31.2149 38.423 32.1597 38.6322 33.0409 39.0449C34.4124 39.6869 36.0473 39.1781 36.8118 37.8709C38.6551 34.7197 42.0645 32.7623 45.709 32.7623C47.7861 32.7623 49.7873 33.3773 51.4965 34.5412C51.7506 34.7143 52.0248 34.8408 52.3078 34.9254C52.197 35.8601 52.1396 36.8066 52.1396 37.7613C52.1396 41.3408 52.5107 44.966 53.7754 48.3378C54.3236 49.7993 55.0025 51.1882 55.9548 52.4253C56.3445 52.9313 57.9833 54.4552 57.8384 55.1591C57.5853 56.3881 57.4574 57.643 57.4574 58.9071C57.4574 68.1457 64.264 75.8281 73.1397 77.2333V94.1366H53.9054V88.0819H54.6867C56.3046 88.0819 57.6164 86.7702 57.6164 85.1522C57.6164 83.5343 56.3046 82.2226 54.6867 82.2226H54.1007V69.332C54.1007 67.7141 52.789 66.4024 51.1711 66.4024H6.44478C4.82682 66.4024 3.51511 67.7141 3.51511 69.332V82.2226H2.92917C1.31121 82.2226 -0.000498918 83.5343 -0.000498918 85.1522C-0.000498918 86.7702 1.31121 88.0819 2.92917 88.0819H3.71042V94.1366H2.92917C1.31121 94.1366 -0.000498918 95.4483 -0.000498918 97.0662C-0.000498918 98.6842 1.31121 99.9959 2.92917 99.9959H97.0692C98.6872 99.9959 99.9989 98.6842 99.9989 97.0662C99.9989 95.4483 98.6872 94.1366 97.0692 94.1366H78.9988V77.2333C87.8744 75.8281 94.681 68.1457 94.681 58.9071C94.681 57.6428 94.553 56.3881 94.2999 55.1591C96.5181 52.5651 98.1692 49.5015 99.0995 46.2167C99.7929 43.7703 99.964 41.2582 99.9938 38.7338ZM9.37464 72.2615H48.2416V82.2224H9.37464V72.2615ZM9.57015 88.0817H48.0463V94.1364H9.57015V88.0817ZM94.1775 39.7082C93.9656 44.3913 92.231 48.9886 88.9832 52.2929C88.2302 53.0591 87.9568 54.1759 88.2711 55.203C88.6369 56.3993 88.8222 57.6454 88.8222 58.9069C88.8222 64.9043 84.623 69.9404 78.9994 71.2625V43.8603C79.3018 43.7197 79.5861 43.5279 79.8356 43.2785L86.8367 36.2773C87.9808 35.1334 87.9808 33.2783 86.8367 32.1342C85.6927 30.9903 83.8377 30.9903 82.6936 32.1342L78.9994 35.8283V30.1926C78.9994 28.5746 77.6877 27.2629 76.0698 27.2629C74.4518 27.2629 73.1401 28.5746 73.1401 30.1926V47.479L70.1112 44.4501C68.9673 43.3062 67.1122 43.3062 65.9681 44.4501C64.8239 45.5941 64.8239 47.4491 65.9681 48.5933L72.9692 55.5944C73.0241 55.6493 73.0821 55.6993 73.1401 55.7489V71.2623C67.5163 69.9404 63.3171 64.9043 63.3171 58.9067C63.3171 57.6452 63.5024 56.3991 63.8683 55.2028C64.1823 54.1755 63.9091 53.0587 63.1562 52.2927C59.8308 48.9095 57.9996 44.4394 57.9996 39.7064C57.9996 39.0578 57.9996 38.4095 57.9996 37.7611C57.9996 33.0281 59.8308 28.558 63.1562 25.1749C63.9091 24.4086 64.1825 23.2919 63.8683 22.2647C63.5024 21.0684 63.3171 19.8223 63.3171 18.5608C63.3171 11.5593 69.038 5.86325 76.0698 5.86325C83.1016 5.86325 88.8222 11.5593 88.8222 18.5608C88.8222 19.8223 88.6369 21.0684 88.2711 22.2647C87.957 23.2919 88.2302 24.4086 88.983 25.1747C92.6915 28.9487 94.4183 34.384 94.1775 39.7082Z" fill="#7E8D1F"/>
</svg>
